<svg width="21" height="21" viewBox="0 0 21 21" fill="none" xmlns="http://www.w3.org/2000/svg">
<path fill-rule="evenodd" clip-rule="evenodd" d="M20.0936 0.365211C20.073 0.34023 20.0512 0.316098 20.028 0.292922C20.0072 0.272098 19.9856 0.25233 19.9633 0.233638C19.7996 0.0961118 19.6022 0.019307 19.4009 0.00322338C19.3409 -0.00160925 19.2802 -0.00103246 19.2197 0.00511953C19.131 0.0140776 19.0433 0.0348569 18.9591 0.0674573L0.981227 6.55947C0.95515 6.56889 0.929477 6.57939 0.904273 6.59094C0.634456 6.71458 0.405811 6.9131 0.245512 7.16288C0.0852128 7.41267 0 7.70323 0 8.00003C0 8.29683 0.0852128 8.58739 0.245512 8.83717C0.401979 9.08099 0.623564 9.27595 0.884995 9.40012L7.57552 12.7454L10.9208 19.4359C11.045 19.6974 11.2399 19.9189 11.4837 20.0754C11.7335 20.2357 12.0241 20.3209 12.3209 20.3209C12.6177 20.3209 12.9082 20.2357 13.158 20.0754C13.4078 19.9151 13.6063 19.6864 13.73 19.4166C13.7415 19.3914 13.752 19.3657 13.7614 19.3397L20.2549 1.35769C20.2761 1.3024 20.2921 1.24562 20.3031 1.18807C20.3252 1.07261 20.3265 0.955331 20.3082 0.841471C20.281 0.670834 20.2094 0.5059 20.0936 0.365211ZM15.4431 3.46355L2.69263 8.06787L8.12337 10.7832L15.4431 3.46355ZM9.53761 12.1974L16.8574 4.87761L12.253 17.6283L9.53761 12.1974Z" fill="#2F73F2"/>
</svg>
