<svg width="20" height="20" viewBox="0 0 20 20" fill="none" xmlns="http://www.w3.org/2000/svg">
<path fill-rule="evenodd" clip-rule="evenodd" d="M17.5 0H2.5C1.11929 0 0 1.11929 0 2.5V17.5C0 18.8807 1.11929 20 2.5 20H17.5C18.8807 20 20 18.8807 20 17.5V2.5C20 1.11929 18.8807 0 17.5 0ZM5 7.75C5.55228 7.75 6 8.19771 6 8.75V15C6 15.5523 5.55228 16 5 16C4.44772 16 4 15.5523 4 15V8.75C4 8.19771 4.44772 7.75 5 7.75ZM6 5C6 4.44772 5.55228 4 5 4C4.44772 4 4 4.44772 4 5V5.0125C4 5.56479 4.44772 6.0125 5 6.0125C5.55228 6.0125 6 5.56479 6 5.0125V5ZM10.821 8.17898C10.6404 7.91968 10.34 7.75 10 7.75C9.44771 7.75 9 8.19771 9 8.75V15C9 15.5523 9.44771 16 10 16C10.5523 16 11 15.5523 11 15V11.25C11 10.8522 11.158 10.4706 11.4393 10.1893C11.7206 9.90804 12.1022 9.75 12.5 9.75C12.8978 9.75 13.2794 9.90804 13.5607 10.1893C13.842 10.4706 14 10.8522 14 11.25V15C14 15.5523 14.4477 16 15 16C15.5523 16 16 15.5523 16 15V11.25C16 10.3217 15.6313 9.4315 14.9749 8.77513C14.3185 8.11875 13.4283 7.75 12.5 7.75C11.9079 7.75 11.3314 7.90001 10.821 8.17898Z" fill="#9DB7CE"/>
</svg>
