<svg width="25" height="20" viewBox="0 0 25 20" fill="none" xmlns="http://www.w3.org/2000/svg">
<path d="M24.9525 0.137986C23.7048 0.749322 22.4822 0.997599 21.2096 1.37313C19.811 -0.20511 17.7375 -0.292444 15.745 0.453635C13.7526 1.19971 12.4475 3.02374 12.4762 5.116V6.36363C8.4277 6.46718 4.82206 4.62319 2.49525 1.37313C2.49525 1.37313 -2.72231 10.6467 7.48574 15.097C5.15019 16.6528 2.82088 17.702 0 17.5922C4.12714 19.8417 8.62482 20.6152 12.5187 19.4849C16.9851 18.1874 20.6557 14.84 22.0642 9.82578C22.4844 8.30077 22.693 6.72526 22.6843 5.14345C22.6818 4.83279 24.5682 1.68504 24.9525 0.136738V0.137986Z" fill="#9DB7CE"/>
</svg>
